<mxfile host="app.diagrams.net" modified="2023-06-19T13:30:40.253Z" agent="Mozilla/5.0 (X11; Linux x86_64; rv:109.0) Gecko/20100101 Firefox/114.0" etag="gq6sfq31Z4LqbIl4zcCG" version="21.5.0" type="device">
  <diagram name="Page-1" id="58cdce13-f638-feb5-8d6f-7d28b1aa9fa0">
    <mxGraphModel dx="1195" dy="659" grid="1" gridSize="10" guides="1" tooltips="1" connect="1" arrows="1" fold="1" page="1" pageScale="1" pageWidth="1100" pageHeight="850" background="none" math="0" shadow="0">
      <root>
        <mxCell id="0" />
        <mxCell id="1" parent="0" />
        <mxCell id="382b91b5511bd0f7-1" value="" style="ellipse;html=1;shape=startState;fillColor=#000000;strokeColor=#666666;rounded=1;shadow=0;comic=0;labelBackgroundColor=none;fontFamily=Verdana;fontSize=12;fontColor=#000000;align=center;direction=south;" parent="1" vertex="1">
          <mxGeometry x="130" y="135" width="30" height="30" as="geometry" />
        </mxCell>
        <mxCell id="382b91b5511bd0f7-6" value="Initialisation" style="rounded=1;whiteSpace=wrap;html=1;arcSize=24;fillColor=#f5f5f5;strokeColor=#666666;shadow=0;comic=0;labelBackgroundColor=none;fontFamily=Verdana;fontSize=12;fontColor=#333333;align=center;" parent="1" vertex="1">
          <mxGeometry x="240" y="120" width="120" height="60" as="geometry" />
        </mxCell>
        <mxCell id="2a3bc250acf0617d-9" style="edgeStyle=orthogonalEdgeStyle;html=1;labelBackgroundColor=none;endArrow=open;endSize=8;strokeColor=#666666;fontFamily=Verdana;fontSize=12;align=left;" parent="1" source="382b91b5511bd0f7-1" target="382b91b5511bd0f7-6" edge="1">
          <mxGeometry relative="1" as="geometry" />
        </mxCell>
        <mxCell id="Tfe6aJT-2zBwd2OTZLij-1" value="&lt;div&gt;Stopped&lt;/div&gt;" style="rounded=1;whiteSpace=wrap;html=1;arcSize=24;fillColor=#f5f5f5;strokeColor=#666666;shadow=0;comic=0;labelBackgroundColor=none;fontFamily=Verdana;fontSize=12;fontColor=#333333;align=center;" parent="1" vertex="1">
          <mxGeometry x="440" y="120" width="120" height="60" as="geometry" />
        </mxCell>
        <mxCell id="Tfe6aJT-2zBwd2OTZLij-2" style="edgeStyle=orthogonalEdgeStyle;html=1;labelBackgroundColor=none;endArrow=open;endSize=8;strokeColor=#666666;fontFamily=Verdana;fontSize=12;align=left;entryX=0;entryY=0.5;entryDx=0;entryDy=0;exitX=1;exitY=0.5;exitDx=0;exitDy=0;" parent="1" source="382b91b5511bd0f7-6" target="Tfe6aJT-2zBwd2OTZLij-1" edge="1">
          <mxGeometry relative="1" as="geometry">
            <mxPoint x="170" y="160" as="sourcePoint" />
            <mxPoint x="250" y="160" as="targetPoint" />
          </mxGeometry>
        </mxCell>
        <mxCell id="BbbhxIuJ5GdTL644qsml-2" value="API ready" style="edgeLabel;html=1;align=center;verticalAlign=middle;resizable=0;points=[];" vertex="1" connectable="0" parent="Tfe6aJT-2zBwd2OTZLij-2">
          <mxGeometry x="-0.1583" y="1" relative="1" as="geometry">
            <mxPoint y="11" as="offset" />
          </mxGeometry>
        </mxCell>
        <mxCell id="Tfe6aJT-2zBwd2OTZLij-3" value="Starting" style="rounded=1;whiteSpace=wrap;html=1;arcSize=24;fillColor=#f5f5f5;strokeColor=#666666;shadow=0;comic=0;labelBackgroundColor=none;fontFamily=Verdana;fontSize=12;fontColor=#333333;align=center;" parent="1" vertex="1">
          <mxGeometry x="640" y="120" width="120" height="60" as="geometry" />
        </mxCell>
        <mxCell id="Tfe6aJT-2zBwd2OTZLij-4" value="start(&lt;i&gt;x&lt;/i&gt;)" style="edgeStyle=orthogonalEdgeStyle;html=1;labelBackgroundColor=none;endArrow=open;endSize=8;strokeColor=#666666;fontFamily=Verdana;fontSize=12;align=left;entryX=0;entryY=0.5;entryDx=0;entryDy=0;" parent="1" target="Tfe6aJT-2zBwd2OTZLij-3" edge="1">
          <mxGeometry x="-0.5001" y="-10" relative="1" as="geometry">
            <mxPoint x="560" y="150" as="sourcePoint" />
            <mxPoint x="450" y="160" as="targetPoint" />
            <mxPoint as="offset" />
          </mxGeometry>
        </mxCell>
        <mxCell id="Tfe6aJT-2zBwd2OTZLij-5" value="&lt;div&gt;Running&lt;/div&gt;" style="rounded=1;whiteSpace=wrap;html=1;arcSize=24;fillColor=#f5f5f5;strokeColor=#666666;shadow=0;comic=0;labelBackgroundColor=none;fontFamily=Verdana;fontSize=12;fontColor=#333333;align=center;" parent="1" vertex="1">
          <mxGeometry x="840" y="120" width="120" height="60" as="geometry" />
        </mxCell>
        <mxCell id="Tfe6aJT-2zBwd2OTZLij-6" style="edgeStyle=orthogonalEdgeStyle;html=1;labelBackgroundColor=none;endArrow=open;endSize=8;strokeColor=#666666;fontFamily=Verdana;fontSize=12;align=left;exitX=1;exitY=0.5;exitDx=0;exitDy=0;" parent="1" source="Tfe6aJT-2zBwd2OTZLij-3" target="Tfe6aJT-2zBwd2OTZLij-5" edge="1">
          <mxGeometry relative="1" as="geometry">
            <mxPoint x="570" y="160" as="sourcePoint" />
            <mxPoint x="650" y="160" as="targetPoint" />
          </mxGeometry>
        </mxCell>
        <mxCell id="Tfe6aJT-2zBwd2OTZLij-7" value="&lt;div&gt;Error&lt;/div&gt;" style="rounded=1;whiteSpace=wrap;html=1;arcSize=24;fillColor=#f5f5f5;strokeColor=#666666;shadow=0;comic=0;labelBackgroundColor=none;fontFamily=Verdana;fontSize=12;fontColor=#333333;align=center;" parent="1" vertex="1">
          <mxGeometry x="640" y="310" width="120" height="60" as="geometry" />
        </mxCell>
        <mxCell id="Tfe6aJT-2zBwd2OTZLij-8" style="edgeStyle=orthogonalEdgeStyle;html=1;labelBackgroundColor=none;endArrow=open;endSize=8;strokeColor=#666666;fontFamily=Verdana;fontSize=12;align=left;entryX=0.5;entryY=0;entryDx=0;entryDy=0;exitX=0.5;exitY=1;exitDx=0;exitDy=0;" parent="1" source="Tfe6aJT-2zBwd2OTZLij-3" target="Tfe6aJT-2zBwd2OTZLij-7" edge="1">
          <mxGeometry relative="1" as="geometry">
            <mxPoint x="570" y="160" as="sourcePoint" />
            <mxPoint x="650" y="160" as="targetPoint" />
          </mxGeometry>
        </mxCell>
        <mxCell id="Tfe6aJT-2zBwd2OTZLij-13" value="&amp;nbsp;&lt;i&gt;x&lt;/i&gt; &amp;gt; &lt;i&gt;y&lt;/i&gt;" style="edgeLabel;html=1;align=center;verticalAlign=middle;resizable=0;points=[];" parent="Tfe6aJT-2zBwd2OTZLij-8" vertex="1" connectable="0">
          <mxGeometry x="-0.2966" relative="1" as="geometry">
            <mxPoint y="4" as="offset" />
          </mxGeometry>
        </mxCell>
        <mxCell id="Tfe6aJT-2zBwd2OTZLij-9" style="edgeStyle=orthogonalEdgeStyle;html=1;labelBackgroundColor=none;endArrow=open;endSize=8;strokeColor=#666666;fontFamily=Verdana;fontSize=12;align=left;entryX=1;entryY=0.5;entryDx=0;entryDy=0;exitX=0.5;exitY=1;exitDx=0;exitDy=0;" parent="1" source="Tfe6aJT-2zBwd2OTZLij-5" target="Tfe6aJT-2zBwd2OTZLij-7" edge="1">
          <mxGeometry relative="1" as="geometry">
            <mxPoint x="710" y="190" as="sourcePoint" />
            <mxPoint x="710" y="320" as="targetPoint" />
          </mxGeometry>
        </mxCell>
        <mxCell id="Tfe6aJT-2zBwd2OTZLij-14" value="if &lt;i&gt;x&lt;/i&gt; &amp;gt; &lt;i&gt;y&lt;/i&gt;" style="edgeLabel;html=1;align=center;verticalAlign=middle;resizable=0;points=[];" parent="Tfe6aJT-2zBwd2OTZLij-9" vertex="1" connectable="0">
          <mxGeometry x="-0.1571" y="1" relative="1" as="geometry">
            <mxPoint x="-1" y="-76" as="offset" />
          </mxGeometry>
        </mxCell>
        <mxCell id="Tfe6aJT-2zBwd2OTZLij-10" value="" style="ellipse;html=1;shape=endState;fillColor=#000000;strokeColor=#666666;rounded=1;shadow=0;comic=0;labelBackgroundColor=none;fontFamily=Verdana;fontSize=12;fontColor=#000000;align=center;" parent="1" vertex="1">
          <mxGeometry x="130" y="325" width="30" height="30" as="geometry" />
        </mxCell>
        <mxCell id="Tfe6aJT-2zBwd2OTZLij-11" style="edgeStyle=orthogonalEdgeStyle;html=1;labelBackgroundColor=none;endArrow=open;endSize=8;strokeColor=#666666;fontFamily=Verdana;fontSize=12;align=left;entryX=1;entryY=0.5;entryDx=0;entryDy=0;exitX=0;exitY=0.5;exitDx=0;exitDy=0;" parent="1" source="Tfe6aJT-2zBwd2OTZLij-7" target="Tfe6aJT-2zBwd2OTZLij-10" edge="1">
          <mxGeometry relative="1" as="geometry">
            <mxPoint x="370" y="160" as="sourcePoint" />
            <mxPoint x="450" y="160" as="targetPoint" />
          </mxGeometry>
        </mxCell>
        <mxCell id="Tfe6aJT-2zBwd2OTZLij-12" value="stop( )" style="edgeStyle=orthogonalEdgeStyle;html=1;labelBackgroundColor=none;endArrow=open;endSize=8;strokeColor=#666666;fontFamily=Verdana;fontSize=12;align=left;entryX=0.5;entryY=0;entryDx=0;entryDy=0;exitX=0.5;exitY=0;exitDx=0;exitDy=0;" parent="1" source="Tfe6aJT-2zBwd2OTZLij-5" target="Tfe6aJT-2zBwd2OTZLij-1" edge="1">
          <mxGeometry y="10" relative="1" as="geometry">
            <mxPoint x="910" y="190" as="sourcePoint" />
            <mxPoint x="770" y="350" as="targetPoint" />
            <Array as="points">
              <mxPoint x="900" y="30" />
              <mxPoint x="500" y="30" />
            </Array>
            <mxPoint as="offset" />
          </mxGeometry>
        </mxCell>
        <mxCell id="Tfe6aJT-2zBwd2OTZLij-15" style="edgeStyle=orthogonalEdgeStyle;html=1;labelBackgroundColor=none;endArrow=open;endSize=8;strokeColor=#666666;fontFamily=Verdana;fontSize=12;align=left;entryX=1;entryY=0.75;entryDx=0;entryDy=0;exitX=1;exitY=0.25;exitDx=0;exitDy=0;" parent="1" source="Tfe6aJT-2zBwd2OTZLij-5" target="Tfe6aJT-2zBwd2OTZLij-5" edge="1">
          <mxGeometry relative="1" as="geometry">
            <mxPoint x="1050" y="130" as="sourcePoint" />
            <mxPoint x="450" y="160" as="targetPoint" />
            <Array as="points">
              <mxPoint x="1030" y="135" />
              <mxPoint x="1030" y="165" />
            </Array>
          </mxGeometry>
        </mxCell>
        <mxCell id="Tfe6aJT-2zBwd2OTZLij-17" value="every &lt;i&gt;z&lt;/i&gt; s&lt;br&gt;generate -&amp;gt; &lt;i&gt;y&lt;/i&gt;" style="edgeLabel;html=1;align=center;verticalAlign=middle;resizable=0;points=[];" parent="Tfe6aJT-2zBwd2OTZLij-15" vertex="1" connectable="0">
          <mxGeometry x="0.349" relative="1" as="geometry">
            <mxPoint x="10" y="-15" as="offset" />
          </mxGeometry>
        </mxCell>
        <mxCell id="Tfe6aJT-2zBwd2OTZLij-18" value="after &lt;i&gt;w&lt;/i&gt; s generate -&amp;gt; &lt;i&gt;y&lt;/i&gt;" style="edgeLabel;html=1;align=center;verticalAlign=middle;resizable=0;points=[];" parent="1" vertex="1" connectable="0">
          <mxGeometry x="699.9982861226965" y="164.99732788867547" as="geometry" />
        </mxCell>
        <mxCell id="Tfe6aJT-2zBwd2OTZLij-19" value="&lt;i&gt;x&lt;/i&gt; &amp;lt;= &lt;i&gt;y&lt;/i&gt;" style="edgeLabel;html=1;align=center;verticalAlign=middle;resizable=0;points=[];" parent="1" vertex="1" connectable="0">
          <mxGeometry x="799.9999999999998" y="159.99724137931025" as="geometry">
            <mxPoint x="-6" as="offset" />
          </mxGeometry>
        </mxCell>
      </root>
    </mxGraphModel>
  </diagram>
</mxfile>
